<mxfile host="app.diagrams.net" modified="2024-04-22T13:21:50.077Z" agent="Mozilla/5.0 (Windows NT 10.0; Win64; x64) AppleWebKit/537.36 (KHTML, like Gecko) Chrome/124.0.0.0 Safari/537.36" version="24.2.7" etag="bDmWQDa3BBj0pGaVJnEC" type="github">
  <diagram name="第 1 页" id="FvAv612C1EWWt6A_yD44">
    <mxGraphModel>
      <root>
        <mxCell id="0" />
        <mxCell id="1" parent="0" />
      </root>
    </mxGraphModel>
  </diagram>
</mxfile>
